# xmcd
#
# Track frame offsets: 
#        150
#        21332
#        36312
#        51170
#
# Disc length: 886 seconds
#
# Revision: 0
# Processed by: cddbd v1.5.2PL0 Copyright (c) Steve Scherf et al.
# Submitted via: ExactAudioCopy v1.0b3
#
DISCID=30037404
DTITLE=Drake White - Sampler
DYEAR=2013
DGENRE=Country
TTITLE0=Alabama Dirt Road
TTITLE1=The Simple Life
TTITLE2=A Cold Beer With My Name On It
TTITLE3=Always Want What You Can't Have
EXTD=
EXTT0=
EXTT1=
EXTT2=
EXTT3=
PLAYORDER=
